<mxfile host="app.diagrams.net" modified="2023-06-04T23:33:10.395Z" agent="Mozilla/5.0 (Windows NT 10.0; Win64; x64) AppleWebKit/537.36 (KHTML, like Gecko) Chrome/113.0.0.0 Safari/537.36 Edg/113.0.1774.57" etag="cK3IUaPpBNVoYWVppOdv" version="21.3.7" type="github">
  <diagram id="C5RBs43oDa-KdzZeNtuy" name="Page-1">
    <mxGraphModel dx="1379" dy="796" grid="1" gridSize="10" guides="1" tooltips="1" connect="1" arrows="1" fold="1" page="1" pageScale="1" pageWidth="827" pageHeight="1169" math="0" shadow="0">
      <root>
        <mxCell id="WIyWlLk6GJQsqaUBKTNV-0" />
        <mxCell id="WIyWlLk6GJQsqaUBKTNV-1" parent="WIyWlLk6GJQsqaUBKTNV-0" />
        <mxCell id="lbleGx0KkzRypeSoIETG-5" value="" style="edgeStyle=orthogonalEdgeStyle;rounded=0;orthogonalLoop=1;jettySize=auto;html=1;" edge="1" parent="WIyWlLk6GJQsqaUBKTNV-1" source="WIyWlLk6GJQsqaUBKTNV-3" target="lbleGx0KkzRypeSoIETG-1">
          <mxGeometry relative="1" as="geometry" />
        </mxCell>
        <mxCell id="WIyWlLk6GJQsqaUBKTNV-3" value="Ingresar cliente" style="rounded=1;whiteSpace=wrap;html=1;fontSize=12;glass=0;strokeWidth=1;shadow=0;" parent="WIyWlLk6GJQsqaUBKTNV-1" vertex="1">
          <mxGeometry x="100" y="40" width="110" height="40" as="geometry" />
        </mxCell>
        <mxCell id="lbleGx0KkzRypeSoIETG-10" value="" style="edgeStyle=orthogonalEdgeStyle;rounded=0;orthogonalLoop=1;jettySize=auto;html=1;" edge="1" parent="WIyWlLk6GJQsqaUBKTNV-1" source="WIyWlLk6GJQsqaUBKTNV-6" target="lbleGx0KkzRypeSoIETG-9">
          <mxGeometry relative="1" as="geometry" />
        </mxCell>
        <mxCell id="lbleGx0KkzRypeSoIETG-13" style="edgeStyle=orthogonalEdgeStyle;rounded=0;orthogonalLoop=1;jettySize=auto;html=1;entryX=1;entryY=0.75;entryDx=0;entryDy=0;" edge="1" parent="WIyWlLk6GJQsqaUBKTNV-1" source="WIyWlLk6GJQsqaUBKTNV-6" target="lbleGx0KkzRypeSoIETG-7">
          <mxGeometry relative="1" as="geometry">
            <Array as="points">
              <mxPoint x="440" y="140" />
            </Array>
          </mxGeometry>
        </mxCell>
        <mxCell id="WIyWlLk6GJQsqaUBKTNV-6" value="Cliente registrado?" style="rhombus;whiteSpace=wrap;html=1;shadow=0;fontFamily=Helvetica;fontSize=12;align=center;strokeWidth=1;spacing=6;spacingTop=-4;" parent="WIyWlLk6GJQsqaUBKTNV-1" vertex="1">
          <mxGeometry x="390" y="20" width="100" height="80" as="geometry" />
        </mxCell>
        <mxCell id="lbleGx0KkzRypeSoIETG-0" value="" style="shape=actor;whiteSpace=wrap;html=1;" vertex="1" parent="WIyWlLk6GJQsqaUBKTNV-1">
          <mxGeometry x="40" y="30" width="40" height="60" as="geometry" />
        </mxCell>
        <mxCell id="lbleGx0KkzRypeSoIETG-6" value="" style="edgeStyle=orthogonalEdgeStyle;rounded=0;orthogonalLoop=1;jettySize=auto;html=1;" edge="1" parent="WIyWlLk6GJQsqaUBKTNV-1" source="lbleGx0KkzRypeSoIETG-1" target="WIyWlLk6GJQsqaUBKTNV-6">
          <mxGeometry relative="1" as="geometry" />
        </mxCell>
        <mxCell id="lbleGx0KkzRypeSoIETG-1" value="buscar cliente" style="rounded=1;whiteSpace=wrap;html=1;fontSize=12;glass=0;strokeWidth=1;shadow=0;" vertex="1" parent="WIyWlLk6GJQsqaUBKTNV-1">
          <mxGeometry x="240" y="40" width="120" height="40" as="geometry" />
        </mxCell>
        <UserObject label="Empleado" placeholders="1" name="Variable" id="lbleGx0KkzRypeSoIETG-3">
          <mxCell style="text;html=1;strokeColor=none;fillColor=none;align=center;verticalAlign=middle;whiteSpace=wrap;overflow=hidden;" vertex="1" parent="WIyWlLk6GJQsqaUBKTNV-1">
            <mxGeometry x="20" y="100" width="80" height="20" as="geometry" />
          </mxCell>
        </UserObject>
        <mxCell id="lbleGx0KkzRypeSoIETG-17" value="" style="edgeStyle=orthogonalEdgeStyle;rounded=0;orthogonalLoop=1;jettySize=auto;html=1;" edge="1" parent="WIyWlLk6GJQsqaUBKTNV-1" source="lbleGx0KkzRypeSoIETG-7" target="lbleGx0KkzRypeSoIETG-16">
          <mxGeometry relative="1" as="geometry" />
        </mxCell>
        <mxCell id="lbleGx0KkzRypeSoIETG-7" value="Registrar cliente" style="rounded=1;whiteSpace=wrap;html=1;fontSize=12;glass=0;strokeWidth=1;shadow=0;" vertex="1" parent="WIyWlLk6GJQsqaUBKTNV-1">
          <mxGeometry x="240" y="110" width="110" height="40" as="geometry" />
        </mxCell>
        <mxCell id="lbleGx0KkzRypeSoIETG-29" value="" style="edgeStyle=orthogonalEdgeStyle;rounded=0;orthogonalLoop=1;jettySize=auto;html=1;" edge="1" parent="WIyWlLk6GJQsqaUBKTNV-1" source="lbleGx0KkzRypeSoIETG-9" target="lbleGx0KkzRypeSoIETG-27">
          <mxGeometry relative="1" as="geometry" />
        </mxCell>
        <mxCell id="lbleGx0KkzRypeSoIETG-9" value="Ingresar producto" style="rounded=1;whiteSpace=wrap;html=1;fontSize=12;glass=0;strokeWidth=1;shadow=0;" vertex="1" parent="WIyWlLk6GJQsqaUBKTNV-1">
          <mxGeometry x="520" y="40" width="120" height="40" as="geometry" />
        </mxCell>
        <mxCell id="lbleGx0KkzRypeSoIETG-14" value="no" style="text;html=1;align=center;verticalAlign=middle;resizable=0;points=[];autosize=1;strokeColor=none;fillColor=none;" vertex="1" parent="WIyWlLk6GJQsqaUBKTNV-1">
          <mxGeometry x="400" y="98" width="40" height="30" as="geometry" />
        </mxCell>
        <mxCell id="lbleGx0KkzRypeSoIETG-15" value="si" style="text;html=1;align=center;verticalAlign=middle;resizable=0;points=[];autosize=1;strokeColor=none;fillColor=none;" vertex="1" parent="WIyWlLk6GJQsqaUBKTNV-1">
          <mxGeometry x="470" y="70" width="30" height="30" as="geometry" />
        </mxCell>
        <mxCell id="lbleGx0KkzRypeSoIETG-18" value="" style="edgeStyle=orthogonalEdgeStyle;rounded=0;orthogonalLoop=1;jettySize=auto;html=1;" edge="1" parent="WIyWlLk6GJQsqaUBKTNV-1" source="lbleGx0KkzRypeSoIETG-16" target="WIyWlLk6GJQsqaUBKTNV-3">
          <mxGeometry relative="1" as="geometry" />
        </mxCell>
        <mxCell id="lbleGx0KkzRypeSoIETG-16" value="Guardar cliente" style="rounded=1;whiteSpace=wrap;html=1;fontSize=12;glass=0;strokeWidth=1;shadow=0;" vertex="1" parent="WIyWlLk6GJQsqaUBKTNV-1">
          <mxGeometry x="100" y="110" width="110" height="40" as="geometry" />
        </mxCell>
        <mxCell id="lbleGx0KkzRypeSoIETG-38" value="" style="edgeStyle=orthogonalEdgeStyle;rounded=0;orthogonalLoop=1;jettySize=auto;html=1;" edge="1" parent="WIyWlLk6GJQsqaUBKTNV-1" source="lbleGx0KkzRypeSoIETG-19" target="lbleGx0KkzRypeSoIETG-37">
          <mxGeometry relative="1" as="geometry" />
        </mxCell>
        <mxCell id="lbleGx0KkzRypeSoIETG-19" value="Registrar en lista" style="rounded=1;whiteSpace=wrap;html=1;fontSize=12;glass=0;strokeWidth=1;shadow=0;" vertex="1" parent="WIyWlLk6GJQsqaUBKTNV-1">
          <mxGeometry x="680" y="240" width="120" height="40" as="geometry" />
        </mxCell>
        <mxCell id="lbleGx0KkzRypeSoIETG-32" value="" style="edgeStyle=orthogonalEdgeStyle;rounded=0;orthogonalLoop=1;jettySize=auto;html=1;" edge="1" parent="WIyWlLk6GJQsqaUBKTNV-1" source="lbleGx0KkzRypeSoIETG-22" target="lbleGx0KkzRypeSoIETG-31">
          <mxGeometry relative="1" as="geometry" />
        </mxCell>
        <mxCell id="lbleGx0KkzRypeSoIETG-33" value="" style="edgeStyle=orthogonalEdgeStyle;rounded=0;orthogonalLoop=1;jettySize=auto;html=1;" edge="1" parent="WIyWlLk6GJQsqaUBKTNV-1" source="lbleGx0KkzRypeSoIETG-22" target="lbleGx0KkzRypeSoIETG-19">
          <mxGeometry relative="1" as="geometry" />
        </mxCell>
        <mxCell id="lbleGx0KkzRypeSoIETG-22" value="Producto existe" style="rhombus;whiteSpace=wrap;html=1;shadow=0;fontFamily=Helvetica;fontSize=12;align=center;strokeWidth=1;spacing=6;spacingTop=-4;" vertex="1" parent="WIyWlLk6GJQsqaUBKTNV-1">
          <mxGeometry x="690" y="128" width="100" height="80" as="geometry" />
        </mxCell>
        <mxCell id="lbleGx0KkzRypeSoIETG-30" value="" style="edgeStyle=orthogonalEdgeStyle;rounded=0;orthogonalLoop=1;jettySize=auto;html=1;" edge="1" parent="WIyWlLk6GJQsqaUBKTNV-1" source="lbleGx0KkzRypeSoIETG-27" target="lbleGx0KkzRypeSoIETG-22">
          <mxGeometry relative="1" as="geometry" />
        </mxCell>
        <mxCell id="lbleGx0KkzRypeSoIETG-27" value="buscar producto" style="rounded=1;whiteSpace=wrap;html=1;fontSize=12;glass=0;strokeWidth=1;shadow=0;" vertex="1" parent="WIyWlLk6GJQsqaUBKTNV-1">
          <mxGeometry x="680" y="40" width="120" height="40" as="geometry" />
        </mxCell>
        <mxCell id="lbleGx0KkzRypeSoIETG-36" value="" style="edgeStyle=orthogonalEdgeStyle;rounded=0;orthogonalLoop=1;jettySize=auto;html=1;" edge="1" parent="WIyWlLk6GJQsqaUBKTNV-1" source="lbleGx0KkzRypeSoIETG-31" target="lbleGx0KkzRypeSoIETG-9">
          <mxGeometry relative="1" as="geometry" />
        </mxCell>
        <mxCell id="lbleGx0KkzRypeSoIETG-31" value="Registrar producto" style="rounded=1;whiteSpace=wrap;html=1;fontSize=12;glass=0;strokeWidth=1;shadow=0;" vertex="1" parent="WIyWlLk6GJQsqaUBKTNV-1">
          <mxGeometry x="520" y="148" width="120" height="40" as="geometry" />
        </mxCell>
        <mxCell id="lbleGx0KkzRypeSoIETG-34" value="si" style="text;html=1;align=center;verticalAlign=middle;resizable=0;points=[];autosize=1;strokeColor=none;fillColor=none;" vertex="1" parent="WIyWlLk6GJQsqaUBKTNV-1">
          <mxGeometry x="700" y="200" width="30" height="30" as="geometry" />
        </mxCell>
        <mxCell id="lbleGx0KkzRypeSoIETG-35" value="no" style="text;html=1;align=center;verticalAlign=middle;resizable=0;points=[];autosize=1;strokeColor=none;fillColor=none;" vertex="1" parent="WIyWlLk6GJQsqaUBKTNV-1">
          <mxGeometry x="660" y="128" width="40" height="30" as="geometry" />
        </mxCell>
        <mxCell id="lbleGx0KkzRypeSoIETG-43" value="" style="edgeStyle=orthogonalEdgeStyle;rounded=0;orthogonalLoop=1;jettySize=auto;html=1;" edge="1" parent="WIyWlLk6GJQsqaUBKTNV-1" source="lbleGx0KkzRypeSoIETG-37" target="lbleGx0KkzRypeSoIETG-42">
          <mxGeometry relative="1" as="geometry" />
        </mxCell>
        <mxCell id="lbleGx0KkzRypeSoIETG-37" value="Buscar datos del cliente y productos" style="rounded=1;whiteSpace=wrap;html=1;glass=0;strokeWidth=1;shadow=0;" vertex="1" parent="WIyWlLk6GJQsqaUBKTNV-1">
          <mxGeometry x="680" y="300" width="120" height="40" as="geometry" />
        </mxCell>
        <mxCell id="lbleGx0KkzRypeSoIETG-40" value="Generar factura" style="rounded=1;whiteSpace=wrap;html=1;glass=0;strokeWidth=1;shadow=0;" vertex="1" parent="WIyWlLk6GJQsqaUBKTNV-1">
          <mxGeometry x="680" y="490" width="120" height="40" as="geometry" />
        </mxCell>
        <mxCell id="lbleGx0KkzRypeSoIETG-48" value="" style="edgeStyle=orthogonalEdgeStyle;rounded=0;orthogonalLoop=1;jettySize=auto;html=1;" edge="1" parent="WIyWlLk6GJQsqaUBKTNV-1" source="lbleGx0KkzRypeSoIETG-42" target="lbleGx0KkzRypeSoIETG-47">
          <mxGeometry relative="1" as="geometry" />
        </mxCell>
        <mxCell id="lbleGx0KkzRypeSoIETG-50" value="" style="edgeStyle=orthogonalEdgeStyle;rounded=0;orthogonalLoop=1;jettySize=auto;html=1;" edge="1" parent="WIyWlLk6GJQsqaUBKTNV-1" source="lbleGx0KkzRypeSoIETG-42" target="lbleGx0KkzRypeSoIETG-40">
          <mxGeometry relative="1" as="geometry" />
        </mxCell>
        <mxCell id="lbleGx0KkzRypeSoIETG-42" value="Faltan productos?" style="rhombus;whiteSpace=wrap;html=1;shadow=0;fontFamily=Helvetica;fontSize=12;align=center;strokeWidth=1;spacing=6;spacingTop=-4;" vertex="1" parent="WIyWlLk6GJQsqaUBKTNV-1">
          <mxGeometry x="690" y="370" width="100" height="80" as="geometry" />
        </mxCell>
        <mxCell id="lbleGx0KkzRypeSoIETG-44" value="si" style="text;html=1;align=center;verticalAlign=middle;resizable=0;points=[];autosize=1;strokeColor=none;fillColor=none;" vertex="1" parent="WIyWlLk6GJQsqaUBKTNV-1">
          <mxGeometry x="680" y="360" width="30" height="30" as="geometry" />
        </mxCell>
        <mxCell id="lbleGx0KkzRypeSoIETG-49" value="" style="edgeStyle=orthogonalEdgeStyle;rounded=0;orthogonalLoop=1;jettySize=auto;html=1;" edge="1" parent="WIyWlLk6GJQsqaUBKTNV-1" source="lbleGx0KkzRypeSoIETG-47" target="lbleGx0KkzRypeSoIETG-31">
          <mxGeometry relative="1" as="geometry" />
        </mxCell>
        <mxCell id="lbleGx0KkzRypeSoIETG-47" value="Se abre espacio para nuevo producto" style="rounded=1;whiteSpace=wrap;html=1;shadow=0;strokeWidth=1;spacing=6;spacingTop=-4;" vertex="1" parent="WIyWlLk6GJQsqaUBKTNV-1">
          <mxGeometry x="520" y="250" width="120" height="60" as="geometry" />
        </mxCell>
      </root>
    </mxGraphModel>
  </diagram>
</mxfile>
